<svg xmlns="http://www.w3.org/2000/svg" enable-background="new 0 0 50 50" viewBox="0 0 50 50" id="pointing-finger">
  <ellipse cx="42.066" cy="30.841" fill="#71C17F" rx="6.714" ry="10.286"></ellipse>
  <path fill="#FFF" d="M42.226,36.5467c-2.2974,5.3937-10.8646,5.6291-15.79,4.09c-4.0816,1.4217-10.659,0.5446-11.03-3.29
		c-0.1062-1.6644,1.148-2.686,1.22-2.79c-5.6179-0.9991-6.6115-5.5812-1.49-7.97c-7.3862-1.4988-9.2573-1.1873-9.39-1.32
		c-6.8954,0-6.466-11.2833,0.89-10.66c2.4989,0.2822,8.7594,1.853,15.72,5.02c3.3524,1.5117,2.58,0.5682,6.2-0.09
		c-10.9842-16.3845,5.8622-18.0071,6.03-9.29c0.2644,7.1321,5.6302,12.2484,6.23,13.06
		C43.5976,27.0961,43.6692,33.3295,42.226,36.5467z"></path>
  <path fill="#EFEEEE" d="M30.3586,21.8472c-1.2612,1.7653-3.44,1.6139-5.5618,1.3126c-14.7865-2.1772-15.6611-2.4196-17.148-2.0963
		C5.5485,21.524,4.449,23.3914,5.628,25.256c-7.0717-0.5899-6.0305-11.2149,1.0104-10.6514
		c1.4073,0.1731,5.4622,1.0618,9.6127,2.5401c2.0774,0.746,4.1076,1.5769,6.1094,2.4834c0.5005,0.2266,1.0093,0.1273,1.5003,0.2689
		c0.5005,0.1416,1.0387,0.1794,1.5581,0.1039c0.5193-0.0756,1.002,0.071,1.5214-0.0895c0.8841-0.3054,1.4561-0.349,1.6147-0.3777
		c-0.6043-0.9065-1.1709-1.8319-1.6808-2.8045c-0.8428-1.5804-2.1796-4.8446-2.2285-6.3833C24.515,7.623,26.5435,5.173,29.301,5.058
		c0.0567,0.1133,0.1133,0.2361,0.17,0.3588c-0.406,0.0095-0.8121,0.0661-1.2181,0.1794c-2.4456,0.6988-3.7959,3.3239-3.1633,5.7789
		l0.0095,0.0378C26.0565,15.1719,28.0571,18.8377,30.3586,21.8472z"></path>
  <path fill="#EFEEEE" d="M33.9468,41.3276c-0.0189-1.5109,0.5665-3.05,1.1614-4.4758c4.24-10.2076,2.4539-11.2734-2.3701-19.4898
		c-1.8192-3.0381-4.2116-6.3993-7.8091-5.4768c-2.1263-7.8973,9.5172-9.6162,9.6599-1.6336
		c0.255,7.2608,5.6032,12.2161,6.2228,13.0593C44.1175,27.7335,45.7871,40.4338,33.9468,41.3276z"></path>
  <path fill="#E9E9EB" d="M28.9328,38.1408c1.0619,0.5526,1.7445,1.349,1.8204,2.2701c0.1625,1.9992-2.5843,3.852-6.1329,4.1392
		c-3.5486,0.2871-6.5555-1.1052-6.718-3.1044c-0.0163-0.2275,0-0.4551,0.0596-0.6772c0.4172-1.7229,2.931-3.2019,6.0733-3.4565
		C25.9421,37.1548,27.6975,37.4853,28.9328,38.1408L28.9328,38.1408z"></path>
  <path fill="#EFEEEE" d="M17.9618,40.7685c1.3871-0.0127,6.0394,0.9701,10.971-2.6276c3.8822,2.0202,1.2074,5.9626-4.3125,6.4092
		C21.2871,44.8198,17.2627,43.3745,17.9618,40.7685z"></path>
  <path fill="#FFF" d="M29.0166,35.7973c0.1776,2.1848-2.8243,4.2098-6.7025,4.5236s-7.1643-1.2079-7.3419-3.3927
		c-0.1913-2.6788,3.7457-4.2781,6.7025-4.5177C24.4081,32.1854,28.7926,33.0775,29.0166,35.7973z"></path>
  <path fill="#EFEEEE" d="M15.0373,36.1881c1.5159-0.0139,6.6003,1.0602,11.9898-2.8716c4.2428,2.2079,1.3195,6.5163-4.713,7.0044
		C18.6715,40.6156,14.2734,39.0361,15.0373,36.1881z"></path>
  <path fill="#FFF" d="M27.1113,29.5359c0.1877,2.3082-2.9838,4.4475-7.0809,4.779s-7.5689-1.2761-7.7565-3.5843
		c-0.2021-2.83,3.9573-4.5196,7.0809-4.7728C22.2427,25.72,26.8747,26.6625,27.1113,29.5359z"></path>
  <path fill="#EFEEEE" d="M12.3427,29.9488c1.6015-0.0147,6.973,1.1201,12.6669-3.0338c4.4823,2.3325,1.394,6.8843-4.9792,7.4
		C16.1821,34.6263,11.5356,32.9576,12.3427,29.9488z"></path>
  <path d="M38.966,21.1067c-1.16-1.38-2.06-2.87-2.7-4.44c0-0.02-0.01-0.03-0.02-0.05h0.01c-1.01-2.47-1.56-4.78-1.59-6.67
		c-0.0858-3.3449-3.2358-5.7549-6.55-4.83c-2.65,0.76-4.22,3.62-3.5,6.42c0.65,2.54,1.71,4.9901,3.3,7.59
		c-5.8521,0.7898-8.1529-1.1578-14.46-3c-2.19-0.66-4.39-1.12-6.26-1.49c-3.5261-0.5573-6.1822,1.8932-6.45,4.86
		c-0.1299,1.45,0.32,2.86,1.25,3.98c2.1095,2.4911,4.256,1.6799,9.1,2.6c1.17,0.21,2.34,0.45,3.48,0.72
		c-1.074,0.5604-2.1251,1.4796-2.56,2.63c-0.01,0-0.01,0.01-0.01,0.01c-0.7409,1.4829,0.1305,3.8737,3.53,4.94
		c-1.9796,2.0542-1.0463,4.5903,1.7,5.72c0.0099,0.01,0.03,0.02,0.05,0.02c0.0259,0.013,0.2285,0.0962,0.33,0.13
		c-0.8304,1.9536,0.698,3.531,2.85,4.32c0.1002,0,4.8694,1.6831,8.89-1.03c0.75-0.5099,1.29-1.09,1.6-1.71
		c2.0178,0.1262,5.6448-0.1637,7.93-1.3c4.933,3.5966,10.39-1.9323,10.39-9.69C49.276,23.1326,43.8663,17.614,38.966,21.1067z
		 M13.026,31.4867c-0.01,0-0.01-0.01-0.01-0.01c-1.0887-1.634,1-3.4792,3.08-4.29h0.02c4.6778-1.8709,10.2834-0.2082,10.5,2.39
		c0.0699,0.91-0.51,1.8-1.52,2.54c-3.4834,2.4122-7.7258,1.5-8.53,1.5v-0.01C15.769,33.6067,13.6032,32.6418,13.026,31.4867z
		 M15.746,35.7267c0.22-0.38,0.55-0.74,0.97-1.07c2.7938,0.5189,6.2223,0.0355,8.58-1.46c2.9362,0.7819,4.4525,2.7951,2,4.87
		c-0.12,0.09-0.25,0.19-0.39,0.28c-2.05,1.3837-5.1809,1.7971-7.67,1.31h-0.01c-0.02-0.0099-0.04-0.0099-0.06-0.02
		c-0.34-0.07-0.67-0.16-0.98-0.26C17.5621,39.3767,14.5994,37.9057,15.746,35.7267z M18.536,41.9367c0-0.01-0.01-0.01-0.01-0.02
		c-0.1882-0.5011-0.1556-0.9688,0.05-1.38c1.1124,0.3037,2.6186,0.3767,3.78,0.28c1.96-0.16,3.77-0.74,5.11-1.64
		c0.35-0.23,0.65-0.48,0.91-0.74c0.9702,0.4233,2.1299,1.3697,1.86,2.36C29.8085,44.2137,20.5061,45.5481,18.536,41.9367z
		 M38.056,39.8067c-2.5879,1.1182-5.7721,0.964-6.8101,1.03c0.1774-1.4182-0.9082-2.5642-2.22-3.21c0.37-0.6,0.54-1.23,0.49-1.87
		c-0.12-1.45-1.36-2.65-3.24-3.31c0.92-0.86,1.42-1.88,1.33-2.95c-0.3034-3.7271-6.7688-5.0336-11.55-3.36
		c-1.55-0.41-3.16-0.76-4.78-1.04c-5.1631-0.9874-6.7435-0.1449-8.51-2.2599c-0.76-0.91-1.13-2.07-1.02-3.25
		c0.2242-2.6227,2.7285-4.4689,5.27-3.96c1.84,0.36,4.01,0.81,6.16,1.46c9.0837,2.6473,5.9285,3.2478,15.33,2.97
		c1.2481,2.1549,4.4251,5.8084,6.12,7.62c0.1803,0.1803,0.4652,0.224,0.71,0.02c0.7277-0.6912-0.7542-0.9792-4.58-6.15
		c-2.8741-3.8321-4.4121-7.2693-5.18-10.3c-0.58-2.24,0.68-4.56,2.81-5.17c2.6006-0.7432,5.1909,1.1306,5.28,3.89
		c0.03,2.0099,0.61,4.4399,1.66,7.03c0,0,0,0.01,0.01,0.01c0,0.01,0,0.02,0.01,0.03c0.68,1.67,1.64,3.25,2.85,4.71
		c1.0836,1.3544,3.7802,3.5175,4.12,8.56C42.5844,34.3887,41.8537,38.1951,38.056,39.8067z M39.836,39.9667
		c3.1576-2.1283,3.7293-5.9425,3.48-9.73c-0.2893-4.2579-2.0647-6.472-3.7-8.38c3.667-2.5423,8.66,1.2896,8.66,8.98
		C48.276,37.5769,43.9281,42.5168,39.836,39.9667z"></path>
</svg>
